<?xml version="1.0" encoding="utf-8"?>
<svg viewBox="0 0 600 600" style="enable-background:new 0 0 1000 1000;" xmlns="http://www.w3.org/2000/svg">
  <defs>
    <style type="text/css">
      .st0{fill:#022A4F;}
      .st1{fill:#3369E8;}
      .st2{fill:#009925;}
      .st3{fill:#D50F25;}
      .st4{fill:#EEB211;}
      .st5{fill:none;}
      .st6{fill:#E6E6E6;}
      .st7{opacity:0.3;}
      .st8{opacity:0.15;}
      .st9{fill:#FFFFFF;}
    </style>
  </defs>
  <g transform="matrix(0.990749, 0, 0, 0.998291, -185.170371, -199.164891)" style="">
    <g>
      <g>
        <g>
          <path class="st1" d="M580,477.7c-1,29.3-12.7,58.3-34.9,80.7l107.4,106.7l25.9,25.7c33.3-33.6,57.3-72.9,72.1-114.7L580,477.7z"/>
          <path class="st1" d="M749.2,367.5c-15-41.2-39.2-79.9-72.4-112.9l-66.2,66.6l-66.2,66.6c21.7,21.5,33.4,49.2,35.3,77.4 L749.2,367.5z"/>
        </g>
        <path class="st2" d="M374,388.5c46.9-47.2,123.3-47.5,170.5-0.6l66.2-66.6c-84-83.5-219.9-83-303.3,1l50.1,49.8L374,388.5z"/>
        <path class="st3" d="M374.5,559l-92.9,93.5l0,0l-13.8,13.9c106.6,105.9,278.8,105.3,384.6-1.3L545,558.4 C498.1,605.6,421.8,605.9,374.5,559z"/>
        <path class="st4" d="M374.5,559C327.3,512,327,435.7,374,388.5l0,0L357.4,372l-50.1-49.8h0l-26.9-26.7 c-98.2,98.9-97.7,258.7,1.2,356.9L374.5,559L374.5,559z"/>
        <polygon class="st5" points="357.4,372 374,388.5 374,388.5 &#9;&#9;&#9;"/>
        <polygon class="st2" points="544.5,387.9 610.7,321.2 544.5,387.9 &#9;&#9;&#9;"/>
        <rect x="598.8" y="536" class="st3" height="151.4" width="0"/>
        <polygon class="st4" points="357.4,372 307.3,322.3 307.3,322.3 &#9;&#9;&#9;"/>
        <rect x="328.1" y="539.8" class="st4" height="131.8" width="0"/>
        <rect x="792.8" y="398.4" transform="matrix(0.4472 -0.8944 0.8944 0.4472 16.5964 969.7537)" class="st6" height="146.1" width="0"/>
        <polygon class="st6" points="742.015 415.9 645.815 471.5 742.715 527.4 772.315 544.5 772.315 398.4"/>
      </g>
      <path class="st7" d="M374,388.5l-66.6-66.2c0,0,15.2-16.6,33.3-27.4L374,388.5z"/>
      <path class="st7" d="M605.2,703.1L545,558.4l107.4,106.7C652.5,665.1,625.4,692.3,605.2,703.1z"/>
      <path class="st8" d="M374.5,559l-92.9,93.5c0,0-31.5-32.6-43.5-57.7L374.5,559z"/>
      <path class="st7" d="M544.5,387.9l190-54.2c0,0-16.9-38.4-57.6-79L544.5,387.9z"/>
    </g>
  </g>
</svg>